<?xml version="1.0" encoding="utf-8"?>
<!-- Generator: Adobe Illustrator 19.0.0, SVG Export Plug-In . SVG Version: 6.00 Build 0)  -->
<svg version="1.1" id="レイヤー_1" xmlns="http://www.w3.org/2000/svg" xmlns:xlink="http://www.w3.org/1999/xlink" x="0px"
	 y="0px" viewBox="0 0 527 69" style="enable-background:new 0 0 527 69;" xml:space="preserve">
<g id="XMLID_2_">
	<path id="XMLID_3_" d="M19.1,32.5c0.1-2.5,0.1-6.3-0.2-8.6c-0.7-5.2-4.6-2.8-4.6-6.1c0-2.3,2.6-3.2,4.6-3.2
		c1.6,0,12.4,0.6,17.3,0.6c1.2,0,13.3-0.6,14.1-0.6c2.3,0,4.8,4.7,4.8,8.8c0,2-1,4.1-3.2,4.1c-4.1,0-2-6.2-13.5-6.2
		c-3.7,0-5.2-0.3-5.2,8.4c0,1.1,0.1,2.1,3.5,2.1c4.6,0,1.7-5.5,5.9-5.5c3.4,0,3.7,6.5,3.7,8.9c0,2.8-0.3,10.1-4.4,10.1
		c-3.8,0,0.1-6.8-6.3-6.8c-2.6,0-2.3,0.5-2.3,6.7C33,54,39,49.1,39,53.6c0,1.4,0.5,4-14,4c-9.6,0-11.2-1.4-11.2-4
		c0-3.4,3.2-1.8,4.5-5c0.6-1.7,0.8-5.9,0.8-7.9V32.5z"/>
	<path id="XMLID_5_" d="M72.8,44c0,2.4,0.2,6.1,3.4,6.1c4.3,0,3.7-5.6,3.7-8.5c0-2,0.1-4.6-0.2-6.5c-0.5-3-3.4-2-3.4-4.5
		c0-3.5,12.1-4.1,14.3-4.1c2.2,0,3.1,1.3,3.1,3.4c0,1.9-0.1,3.8-0.1,5.7v12.1c0,3.6,3.3,1.9,3.3,4.8c0,4.1-10.6,5.2-13.9,5.2
		c-4.6,0-1.6-3.6-4-3.6c-0.7,0-1.6,0.9-3.1,1.8s-3.4,1.8-6,1.8c-11.4,0-10.4-9-10.4-18c0-9.2-4.1-5.2-4.1-9.1c0-3.8,15.1-4,15.6-4
		c1.7,0,1.9,0.8,1.9,2.3V44z"/>
	<path id="XMLID_7_" d="M102.1,38.8c0-5.9-3.7-2.6-3.7-6.2c0-4.7,14-6.1,14.6-6.1c2.3,0,2.3,0.6,2.6,2.6c0.1,0.7,0,2.1,1,2.1
		c1.4,0,2.3-4.7,7.5-4.7c4,0,6.7,3,6.7,7c0,4-3.4,7.2-7.4,7.2c-3.9,0-5-3.4-6.5-3.4c-1.7,0-1.4,4-1.4,5.1c0,1.8,0.2,4.3,0.5,6.6
		c0.4,2.6,4.9,1,4.9,4.6c0,3.8-5.3,4.1-11.9,4.1c-2.8,0-10.9,0.1-10.9-4c0-2.5,2.8-2.5,3.4-4.6c0.5-1.5,0.7-4.9,0.7-6.6V38.8z"/>
	<path id="XMLID_9_" d="M149,47c0,5.8,2,4.8,2,7.1c0,3.7-8,3.6-10.4,3.6c-2.4,0-8.5,0-8.5-3.6c0-2.9,2.8-0.3,2.9-6.2l0.2-9
		c0.1-4.4-3.5-3-3.5-6.2c0-3.2,13.8-6.2,15-6.2c1.3,0,2.2,1.1,2.2,2.3c0,0.4-0.1,0.7-0.1,1.1c0,0.7,0.3,1.6,1.2,1.6
		c1,0,1.5-1.3,2.7-2.5c1.2-1.2,3-2.5,6.4-2.5c12.4,0,10.3,12.2,10.9,21.3c0.3,4.7,2.8,3.7,2.8,6.2c0,1.1,0.2,3.6-11,3.6
		c-2.2,0-7.9,0.1-7.9-3.2c0-2.2,2-1.1,2.3-5c0.3-4.3,2-13.9-3.7-13.9c-3.8,0-3.5,4.1-3.5,6.8V47z"/>
	<path id="XMLID_11_" d="M191.7,45.9c0,7.1,3.5,4.5,3.5,7.7c0,4.1-7.6,4.1-10.3,4.1c-10.3,0-10.7-2.3-10.7-3.8
		c0-2.2,2.5-2.3,3.2-4.1c0.8-2.1,0.9-10.8,0.2-13c-0.5-2.1-3.6-1.4-3.6-4.1c0-4.3,15.2-6.1,15.8-6.1c1.8,0,1.9,1.4,1.9,2.6V45.9z
		 M179.9,24.6c-2.5,0-5.2-1.1-5.2-4.1c0-4,7.9-5.6,11-5.6c2.4,0,5.8,0.8,5.8,3.8C191.4,23.4,183.3,24.6,179.9,24.6z"/>
	<path id="XMLID_14_" d="M215.4,44c0,4,1.7,5,3.3,5c1.9,0,2.9-1.4,4-1.4c1.2,0,2,1.7,2,2.8c0,4-6.8,7.4-12.9,7.4
		c-3.1,0-10.7-1.3-10.7-10.9V34.6c0-1.1,0-1.5-0.3-1.7c-0.3-0.2-1-0.1-2.3-0.1c-1.6,0-2.3,0.1-2.6-0.2c-0.4-0.4-0.3-1-0.3-2.4
		c0-0.8-0.2-1.5,0.5-2l13.7-8.7c1.4-0.8,1.3-0.7,3.1-0.7c2.4,0,2.5-0.2,2.5,2.5c0,1.9-0.1,3.7,0.2,4.4c0.2,0.5,0.6,0.5,2.2,0.5h4.2
		c2.6,0,2.6,0.2,2.6,2.9c0,3.4-0.4,3.7-2.8,3.7h-4.1c-2.1,0-2.2,0.1-2.2,2.2V44z"/>
	<path id="XMLID_16_" d="M243.2,44c0,2.4,0.2,6.1,3.4,6.1c4.3,0,3.7-5.6,3.7-8.5c0-2,0.1-4.6-0.2-6.5c-0.5-3-3.4-2-3.4-4.5
		c0-3.5,12.1-4.1,14.3-4.1c2.2,0,3.1,1.3,3.1,3.4c0,1.9-0.1,3.8-0.1,5.7v12.1c0,3.6,3.3,1.9,3.3,4.8c0,4.1-10.6,5.2-13.9,5.2
		c-4.6,0-1.6-3.6-4-3.6c-0.7,0-1.6,0.9-3.1,1.8c-1.4,0.9-3.4,1.8-6,1.8c-11.4,0-10.4-9-10.4-18c0-9.2-4.1-5.2-4.1-9.1
		c0-3.8,15.1-4,15.6-4c1.7,0,1.9,0.8,1.9,2.3V44z"/>
	<path id="XMLID_18_" d="M272.6,38.8c0-5.9-3.7-2.6-3.7-6.2c0-4.7,14-6.1,14.6-6.1c2.3,0,2.3,0.6,2.6,2.6c0.1,0.7,0,2.1,1,2.1
		c1.4,0,2.3-4.7,7.5-4.7c4,0,6.7,3,6.7,7c0,4-3.4,7.2-7.4,7.2c-3.9,0-5-3.4-6.5-3.4c-1.7,0-1.4,4-1.4,5.1c0,1.8,0.2,4.3,0.5,6.6
		c0.4,2.6,4.9,1,4.9,4.6c0,3.8-5.3,4.1-11.9,4.1c-2.8,0-10.9,0.1-10.9-4c0-2.5,2.8-2.5,3.4-4.6c0.5-1.5,0.7-4.9,0.7-6.6V38.8z"/>
	<path id="XMLID_20_" d="M317.4,43.2c-0.7,0-1.6-0.2-1.6,0.8c0,3,3.9,5.5,6.7,5.5c4.5,0,6.7-2.7,8-2.7s2.3,1.9,2.3,3
		c0,4.6-8.5,8-13.9,8c-10.8,0-16.4-7.8-16.4-15.5c0-9.2,7.9-16,16.9-16c10.2,0,14.7,7.9,14.7,12.4c0,4-1.8,4.5-3.7,4.5H317.4z
		 M322.7,35.6c0-2.2-1.3-3.8-3.5-3.8c-2,0-3.6,2-3.6,4c0,2.2,2,1.7,3.6,1.7C320.7,37.4,322.7,37.8,322.7,35.6z"/>
	<path id="XMLID_23_" d="M347.3,46.9c-1.4,0-2.9-0.5-4.4-0.5c-5.2,0-5.6,0.2-6.1,0.2c-1,0-1.8-0.7-1.8-1.8c0-1.5,1.9-6.4,2.4-7.4
		c0.8-1.5,1.5-2.2,3.2-2.2c1.4,0,2.9,0.5,4.4,0.5c5.2,0,5.6-0.2,6.1-0.2c1,0,1.8,0.7,1.8,1.8c0,1.5-1.9,6.4-2.4,7.4
		C349.8,46.3,349.1,46.9,347.3,46.9z"/>
	<path id="XMLID_25_" d="M370.3,26.7c1.1,0.2,2,0.4,2.5,0.4c0.6,0,1.1-0.2,1.6-0.4c0.5-0.2,1.1-0.4,1.6-0.4c2.8,0,5.5,5.5,5.5,8
		c0,1.6-1.4,2.8-2.9,2.8c-3.4,0-5.3-4.7-8-4.7c-1.1,0-2.2,0.9-2.2,2c0,3.8,13.2,4.6,13.2,13.9c0,5.6-5.5,9.5-11.7,9.5
		c-1.2,0-2.9-0.2-4.4-0.4c-1.5-0.2-2.8-0.4-3.2-0.4c-0.4,0-0.8,0.1-1.2,0.1c-0.4,0.1-0.7,0.1-1.1,0.1c-1.2,0-1.8-0.2-2.6-1.1
		c-1.5-1.7-3-5.1-3-7.4c0-1.6,0.5-2.8,2.3-2.8c2.6,0,5,5.9,8.4,5.9c1.2,0,2.3-0.6,2.3-1.9c0-3.5-11.8-4-11.8-13.9
		c0-6,4.9-9.8,11.1-9.8C367.9,26.3,369.2,26.5,370.3,26.7z"/>
	<path id="XMLID_27_" d="M402.5,44c0,4,1.7,5,3.3,5c1.9,0,2.9-1.4,4-1.4c1.2,0,2,1.7,2,2.8c0,4-6.8,7.4-12.9,7.4
		c-3.1,0-10.7-1.3-10.7-10.9V34.6c0-1.1,0-1.5-0.3-1.7c-0.3-0.2-1-0.1-2.3-0.1c-1.6,0-2.3,0.1-2.6-0.2c-0.4-0.4-0.3-1-0.3-2.4
		c0-0.8-0.2-1.5,0.5-2l13.7-8.7c1.4-0.8,1.3-0.7,3.1-0.7c2.4,0,2.5-0.2,2.5,2.5c0,1.9-0.1,3.7,0.2,4.4c0.2,0.5,0.6,0.5,2.2,0.5h4.2
		c2.6,0,2.6,0.2,2.6,2.9c0,3.4-0.4,3.7-2.8,3.7h-4.1c-2.1,0-2.2,0.1-2.2,2.2V44z"/>
	<path id="XMLID_29_" d="M413.3,43.1c0-10.7,9.4-16.8,19.3-16.8c10.5,0,16.5,8.2,16.5,15.7c0,9.8-10.6,15.8-19.4,15.8
		C420.9,57.8,413.3,52.6,413.3,43.1z M430.1,33.4c-2,0-3.1,1.9-2.9,3.6c0.2,3.8,1.3,13,5.5,13.3c2.3,0.1,2.8-1.8,2.8-3.7
		C435.3,43.9,434.1,33.4,430.1,33.4z"/>
	<path id="XMLID_32_" d="M454.9,38.8c0-5.9-3.7-2.6-3.7-6.2c0-4.7,14-6.1,14.6-6.1c2.3,0,2.3,0.6,2.6,2.6c0.1,0.7,0,2.1,1,2.1
		c1.4,0,2.3-4.7,7.5-4.7c4,0,6.7,3,6.7,7c0,4-3.4,7.2-7.4,7.2c-3.9,0-5-3.4-6.5-3.4c-1.7,0-1.4,4-1.4,5.1c0,1.8,0.2,4.3,0.5,6.6
		c0.4,2.6,4.9,1,4.9,4.6c0,3.8-5.3,4.1-11.9,4.1c-2.8,0-10.9,0.1-10.9-4c0-2.5,2.8-2.5,3.4-4.6c0.5-1.5,0.7-4.9,0.7-6.6V38.8z"/>
	<path id="XMLID_34_" d="M499.8,43.2c-0.7,0-1.6-0.2-1.6,0.8c0,3,3.9,5.5,6.7,5.5c4.5,0,6.7-2.7,8-2.7s2.3,1.9,2.3,3
		c0,4.6-8.5,8-13.9,8c-10.8,0-16.4-7.8-16.4-15.5c0-9.2,7.9-16,16.9-16c10.2,0,14.7,7.9,14.7,12.4c0,4-1.8,4.5-3.7,4.5H499.8z
		 M505,35.6c0-2.2-1.3-3.8-3.5-3.8c-2,0-3.6,2-3.6,4c0,2.2,2,1.7,3.6,1.7C503.1,37.4,505,37.8,505,35.6z"/>
</g>
</svg>
